<svg width="17" height="17" viewBox="0 0 17 17" fill="none" xmlns="http://www.w3.org/2000/svg">
<path d="M15 13L2 13C1.44772 13 1 13.4477 1 14L1 15C1 15.5523 1.44771 16 2 16L15 16C15.5523 16 16 15.5523 16 15L16 14C16 13.4477 15.5523 13 15 13Z" stroke="#92A6FF" stroke-width="1.5" stroke-linecap="round"/>
<path d="M15 7L2 7C1.44772 7 1 7.44772 1 8L1 9C1 9.55228 1.44771 10 2 10L15 10C15.5523 10 16 9.55228 16 9L16 8C16 7.44772 15.5523 7 15 7Z" stroke="#92A6FF" stroke-width="1.5" stroke-linecap="round"/>
<path d="M2 4L15 4C15.5523 4 16 3.55228 16 3L16 2C16 1.44772 15.5523 1 15 1L2 1C1.44772 1 1 1.44771 1 2L1 3C1 3.55228 1.44771 4 2 4Z" stroke="#92A6FF" stroke-width="1.5" stroke-linecap="round"/>
</svg>
