<svg width="18" height="17" viewBox="0 0 18 17" fill="none" xmlns="http://www.w3.org/2000/svg">
<path d="M3.10728 1.21401C2.68104 1.21401 2.27226 1.38333 1.97086 1.68473C1.66946 1.98613 1.50014 2.39491 1.50014 2.82115V10.3212C1.50014 10.7474 1.66946 11.1562 1.97086 11.4576C2.27226 11.759 2.68104 11.9283 3.10728 11.9283H5.07157V15.354C5.07157 15.499 5.23585 15.584 5.35443 15.4983L10.303 11.9283H14.893C15.3192 11.9283 15.728 11.759 16.0294 11.4576C16.3308 11.1562 16.5001 10.7474 16.5001 10.3212V2.82115C16.5001 2.39491 16.3308 1.98613 16.0294 1.68473C15.728 1.38333 15.3192 1.21401 14.893 1.21401H3.10728ZM0.428711 2.82115C0.428711 2.11075 0.710917 1.42944 1.21325 0.927114C1.71558 0.424784 2.39688 0.142578 3.10728 0.142578H14.893C15.6034 0.142578 16.2847 0.424784 16.787 0.927114C17.2894 1.42944 17.5716 2.11075 17.5716 2.82115V10.3212C17.5716 11.0316 17.2894 11.7129 16.787 12.2152C16.2847 12.7175 15.6034 12.9997 14.893 12.9997H10.6494L5.98157 16.3676C5.15443 16.964 4.00014 16.3733 4.00014 15.3533V12.9997H3.10728C2.39688 12.9997 1.71558 12.7175 1.21325 12.2152C0.710917 11.7129 0.428711 11.0316 0.428711 10.3212V2.82115Z" fill="#455ECE"/>
</svg>
