<svg width="17" height="18" viewBox="0 0 17 18" fill="none" xmlns="http://www.w3.org/2000/svg">
<path d="M16 15.5L16 13.5C16 12.9477 15.5523 12.5 15 12.5L11 12.5C10.4477 12.5 10 12.9477 10 13.5L10 15.5C10 16.0523 10.4477 16.5 11 16.5L15 16.5C15.5523 16.5 16 16.0523 16 15.5Z" stroke="#92A6FF" stroke-width="1.5" stroke-linecap="round"/>
<path d="M0.999998 2L0.999999 4C0.999999 4.55228 1.44771 5 2 5L6 5C6.55228 5 7 4.55228 7 4L7 2C7 1.44771 6.55228 1 6 1L2 0.999999C1.44771 0.999999 0.999998 1.44771 0.999998 2Z" stroke="#92A6FF" stroke-width="1.5" stroke-linecap="round"/>
<path d="M10 2V8.5C10 9.05229 10.4477 9.5 11 9.5H15C15.5523 9.5 16 9.05229 16 8.5V2C16 1.44772 15.5523 1 15 1L11 1C10.4477 1 10 1.44772 10 2Z" stroke="#92A6FF" stroke-width="1.5" stroke-linecap="round"/>
<path d="M7 15.5L7 9C7 8.44772 6.55229 8 6 8L2 8C1.44772 8 1 8.44771 1 9L1 15.5C1 16.0523 1.44772 16.5 2 16.5L6 16.5C6.55228 16.5 7 16.0523 7 15.5Z" stroke="#92A6FF" stroke-width="1.5" stroke-linecap="round"/>
</svg>
