<svg width="21" height="21" viewBox="0 0 21 21" fill="none" xmlns="http://www.w3.org/2000/svg">
<path d="M19.4952 12.6609L17.5265 10.6921C17.4034 10.5691 17.2365 10.5 17.0625 10.5C16.8885 10.5 16.7216 10.5691 16.5985 10.6921L10.5 16.7907V19.6874H13.3967L19.4952 13.5888C19.6182 13.4658 19.6874 13.2989 19.6874 13.1249C19.6874 12.9508 19.6182 12.784 19.4952 12.6609ZM12.8533 18.3749H11.8125V17.334L15.0937 14.0528L16.1346 15.0936L12.8533 18.3749ZM17.0625 14.1657L16.0217 13.1249L17.0625 12.084L18.1033 13.1249L17.0625 14.1657Z" fill="#92A6FF"/>
<path d="M5.25 10.5H11.8125V11.8125H5.25V10.5Z" fill="#92A6FF"/>
<path d="M5.25 6.5625H13.125V7.875H5.25V6.5625Z" fill="#92A6FF"/>
<path d="M17.0625 2.625C17.0622 2.27701 16.9238 1.94337 16.6777 1.69731C16.4316 1.45124 16.098 1.31285 15.75 1.3125H2.625C2.27701 1.31285 1.94338 1.45124 1.69731 1.69731C1.45124 1.94337 1.31285 2.27701 1.3125 2.625V11.1563C1.31104 12.465 1.66604 13.7495 2.33939 14.8718C3.01274 15.9941 3.97902 16.9118 5.1345 17.5265L8.53125 19.3377V17.85L5.75269 16.3682C4.80726 15.8653 4.01662 15.1145 3.4656 14.1962C2.91458 13.278 2.62399 12.2271 2.625 11.1563V2.625H15.75V8.53125H17.0625V2.625Z" fill="#92A6FF"/>
</svg>
