<svg width="15" height="17" viewBox="0 0 15 17" fill="none" xmlns="http://www.w3.org/2000/svg">
<path d="M4.33325 2.16683V11.6668C4.33325 12.0868 4.50007 12.4895 4.797 12.7864C5.09393 13.0833 5.49666 13.2502 5.91659 13.2502H12.2499C12.6698 13.2502 13.0726 13.0833 13.3695 12.7864C13.6664 12.4895 13.8333 12.0868 13.8333 11.6668V4.73341C13.8332 4.52248 13.7911 4.31368 13.7092 4.11927C13.6274 3.92487 13.5075 3.74877 13.3567 3.60133L10.7323 1.03475C10.4365 0.745517 10.0392 0.583548 9.62554 0.583496H5.91659C5.49666 0.583496 5.09393 0.750311 4.797 1.04724C4.50007 1.34418 4.33325 1.7469 4.33325 2.16683V2.16683Z" stroke="#9D9D9D" stroke-linecap="round" stroke-linejoin="round"/>
<path d="M10.6666 13.2503V14.8337C10.6666 15.2536 10.4998 15.6563 10.2029 15.9532C9.90595 16.2502 9.50322 16.417 9.08329 16.417H2.74996C2.33003 16.417 1.92731 16.2502 1.63037 15.9532C1.33344 15.6563 1.16663 15.2536 1.16663 14.8337V6.12533C1.16663 5.7054 1.33344 5.30267 1.63037 5.00574C1.92731 4.70881 2.33003 4.54199 2.74996 4.54199H4.33329" stroke="#9D9D9D" stroke-linecap="round" stroke-linejoin="round"/>
</svg>
