<svg width="16" height="16" viewBox="0 0 16 16" fill="none" xmlns="http://www.w3.org/2000/svg">
<path d="M14.7846 3.72845L12.2729 1.21678C11.9451 0.908868 11.5156 0.732193 11.066 0.720362C10.6164 0.70853 10.1781 0.862369 9.83458 1.15261L1.58458 9.40261C1.28828 9.70142 1.10379 10.0931 1.06208 10.5118L0.667915 14.3343C0.655567 14.4685 0.672988 14.6039 0.718938 14.7306C0.764888 14.8574 0.838234 14.9725 0.933748 15.0676C1.0194 15.1526 1.12098 15.2198 1.23267 15.2654C1.34435 15.311 1.46394 15.3341 1.58458 15.3334H1.66708L5.48958 14.9851C5.90831 14.9434 6.29995 14.7589 6.59875 14.4626L14.8487 6.21261C15.169 5.87433 15.342 5.42291 15.33 4.95727C15.3179 4.49163 15.1218 4.04975 14.7846 3.72845ZM5.32458 13.1518L2.57458 13.4084L2.82208 10.6584L8.00125 5.54345L10.4762 8.01845L5.32458 13.1518ZM11.6679 6.79011L9.21125 4.33345L10.9987 2.50011L13.5012 5.00261L11.6679 6.79011Z" fill="#9D9D9D"/>
</svg>
