<svg width="21" height="21" viewBox="0 0 21 21" fill="none" xmlns="http://www.w3.org/2000/svg">
<g clip-path="url(#clip0_1205_16705)">
<path d="M4.00061 16.9991C7.59013 20.5886 13.4099 20.5886 16.9994 16.9991C20.5889 13.4096 20.5889 7.58988 16.9994 4.00036C13.4099 0.410851 7.59013 0.410851 4.00061 4.00036C0.411101 7.58988 0.411103 13.4096 4.00061 16.9991Z" stroke="#92A6FF" stroke-width="1.5" stroke-linecap="round" stroke-linejoin="round"/>
<path d="M10.379 12.283V11.763C10.379 11.3557 10.4527 10.9787 10.6 10.632C10.756 10.2853 11.016 9.90833 11.38 9.501C11.6573 9.19767 11.848 8.93767 11.952 8.721C12.0647 8.50433 12.121 8.27467 12.121 8.032C12.121 7.746 12.017 7.52067 11.809 7.356C11.601 7.19133 11.3063 7.109 10.925 7.109C10.0757 7.109 9.29133 7.421 8.572 8.045L8.026 6.797C8.39 6.46767 8.84067 6.20333 9.378 6.004C9.924 5.80467 10.4743 5.705 11.029 5.705C11.575 5.705 12.0517 5.796 12.459 5.978C12.875 6.16 13.1957 6.41133 13.421 6.732C13.655 7.05267 13.772 7.42967 13.772 7.863C13.772 8.26167 13.681 8.63433 13.499 8.981C13.3257 9.32767 13.0137 9.70467 12.563 10.112C12.1557 10.4847 11.874 10.8097 11.718 11.087C11.562 11.3643 11.4623 11.6417 11.419 11.919L11.367 12.283H10.379ZM9.963 15V13.193H11.783V15H9.963Z" fill="#92A6FF"/>
</g>
<defs>
<clipPath id="clip0_1205_16705">
<rect width="21" height="21" fill="white"/>
</clipPath>
</defs>
</svg>
