<svg width="135" height="18" viewBox="0 0 135 18" fill="none" xmlns="http://www.w3.org/2000/svg">
<path d="M95.1233 9.47038C95.1233 10.7843 94.9295 11.926 94.5402 12.8974C94.1526 13.8688 93.6015 14.6793 92.8868 15.3288C92.1721 15.9782 91.3134 16.4611 90.3071 16.7737C89.3027 17.0881 88.1897 17.2454 86.9701 17.2454C86.3888 17.2454 85.7292 17.2192 84.995 17.1686C84.2589 17.1162 83.5602 17.0114 82.8953 16.8504V2.11465C83.5602 1.95369 84.2678 1.85262 85.0163 1.8077C85.7648 1.76278 86.4297 1.74219 87.0128 1.74219C88.2182 1.74219 89.3222 1.89192 90.3196 2.19139C91.3187 2.49086 92.1739 2.95691 92.8886 3.59141C93.6015 4.22591 94.1526 5.02887 94.542 6.00027C94.9295 6.97168 95.1233 8.12838 95.1233 9.47038ZM85.5141 14.7916C85.667 14.8066 85.8679 14.8178 86.1168 14.8253C86.3657 14.8328 86.7052 14.8365 87.1355 14.8365C88.8973 14.8365 90.2094 14.3667 91.0769 13.4253C91.9428 12.4838 92.3765 11.1661 92.3765 9.47225C92.3765 7.7503 91.9534 6.42889 91.1072 5.50989C90.2609 4.59089 88.9507 4.13046 87.1764 4.13046C86.4012 4.13046 85.8465 4.15105 85.5123 4.19597V14.7916H85.5141Z" fill="white"/>
<path d="M39.9251 11.3327C39.9251 12.2386 39.7988 13.0622 39.5499 13.8071C39.301 14.552 38.9473 15.1865 38.4904 15.7125C38.0317 16.2384 37.4805 16.6465 36.837 16.9403C36.1916 17.2323 35.4823 17.3783 34.7053 17.3783C33.9284 17.3783 33.2209 17.2323 32.5844 16.9403C31.9479 16.6483 31.4004 16.2384 30.9417 15.7125C30.483 15.1865 30.1274 14.552 29.8696 13.8071C29.6136 13.064 29.4856 12.2386 29.4856 11.3327C29.4856 10.4268 29.6136 9.60704 29.8696 8.8696C30.1256 8.13215 30.4865 7.5014 30.9506 6.97545C31.4146 6.45138 31.9657 6.04523 32.6039 5.76073C33.2404 5.47623 33.9409 5.33398 34.7053 5.33398C35.468 5.33398 36.1721 5.47623 36.8174 5.76073C37.4628 6.04523 38.0139 6.45138 38.4708 6.97545C38.9295 7.5014 39.285 8.13215 39.5428 8.8696C39.7971 9.60517 39.9251 10.4268 39.9251 11.3327ZM37.3454 11.3327C37.3454 10.1948 37.1125 9.2926 36.6485 8.62815C36.1845 7.9637 35.5356 7.63241 34.7036 7.63241C33.8715 7.63241 33.2226 7.9637 32.7586 8.62815C32.2946 9.2926 32.0617 10.1929 32.0617 11.3327C32.0617 12.4876 32.2928 13.3991 32.7586 14.0691C33.2226 14.7411 33.8715 15.0761 34.7036 15.0761C35.5356 15.0761 36.1827 14.7411 36.6485 14.0691C37.1143 13.3972 37.3454 12.4857 37.3454 11.3327Z" fill="white"/>
<path d="M44.1917 15.164C44.8567 15.164 45.342 15.0798 45.6478 14.9113C45.9518 14.7447 46.1047 14.4546 46.1047 14.0466C46.1047 13.6666 45.9411 13.3541 45.6158 13.1051C45.2904 12.8562 44.7518 12.5867 44.0051 12.2947C43.5464 12.1206 43.1268 11.9335 42.7464 11.7369C42.3641 11.5404 42.0352 11.3102 41.7579 11.0482C41.4805 10.7861 41.2619 10.4679 41.1036 10.0955C40.9436 9.72301 40.8654 9.26631 40.8654 8.72727C40.8654 7.67538 41.2334 6.8481 41.9677 6.24167C42.7019 5.63524 43.7011 5.33203 44.9633 5.33203C45.6016 5.33203 46.2114 5.3938 46.7945 5.51733C47.3758 5.64273 47.8132 5.76252 48.1048 5.87856L47.6479 8.02351C47.3705 7.8925 47.0167 7.77084 46.5883 7.66228C46.158 7.55185 45.6585 7.49757 45.0913 7.49757C44.5775 7.49757 44.1615 7.58928 43.8433 7.77084C43.5251 7.95426 43.3651 8.23502 43.3651 8.61497C43.3651 8.80401 43.3971 8.97246 43.4575 9.11845C43.5197 9.26444 43.6282 9.40108 43.7793 9.52461C43.9322 9.64814 44.1331 9.77167 44.382 9.8952C44.6309 10.0206 44.9367 10.1479 45.2976 10.2789C45.8949 10.5129 46.3998 10.7431 46.8158 10.9695C47.2318 11.196 47.575 11.4506 47.8452 11.7351C48.1154 12.0196 48.3128 12.3452 48.4372 12.7083C48.5617 13.0733 48.6239 13.5113 48.6239 14.0223C48.6239 15.1172 48.2399 15.9464 47.4701 16.506C46.7003 17.0675 45.6016 17.3483 44.1722 17.3483C43.2157 17.3483 42.4459 17.264 41.8628 17.0974C41.2797 16.929 40.8725 16.7942 40.6361 16.6913L41.0734 14.479C41.4485 14.6399 41.8948 14.7934 42.4157 14.9394C42.933 15.091 43.5251 15.164 44.1917 15.164Z" fill="white"/>
<path d="M52.9744 15.164C53.6393 15.164 54.1246 15.0798 54.4304 14.9113C54.7344 14.7447 54.8873 14.4546 54.8873 14.0466C54.8873 13.6666 54.7238 13.3541 54.3984 13.1051C54.0731 12.8562 53.5344 12.5867 52.7877 12.2947C52.329 12.1206 51.9094 11.9335 51.529 11.7369C51.1468 11.5404 50.8179 11.3102 50.5405 11.0482C50.2632 10.7861 50.0445 10.4679 49.8863 10.0955C49.7263 9.72301 49.648 9.26631 49.648 8.72727C49.648 7.67538 50.016 6.8481 50.7503 6.24167C51.4845 5.63524 52.4837 5.33203 53.746 5.33203C54.3842 5.33203 54.994 5.3938 55.5771 5.51733C56.1585 5.64273 56.5958 5.76252 56.8874 5.87856L56.4305 8.02351C56.1531 7.8925 55.7994 7.77084 55.3709 7.66228C54.9407 7.55185 54.4411 7.49757 53.874 7.49757C53.3602 7.49757 52.9441 7.58928 52.6259 7.77084C52.3077 7.95426 52.1477 8.23502 52.1477 8.61497C52.1477 8.80401 52.1797 8.97246 52.2401 9.11845C52.3023 9.26444 52.4108 9.40108 52.5619 9.52461C52.7148 9.64814 52.9157 9.77167 53.1646 9.8952C53.4135 10.0206 53.7193 10.1479 54.0802 10.2789C54.6775 10.5129 55.1824 10.7431 55.5985 10.9695C56.0145 11.196 56.3576 11.4506 56.6278 11.7351C56.8981 12.0196 57.0954 12.3452 57.2198 12.7083C57.3443 13.0733 57.4065 13.5113 57.4065 14.0223C57.4065 15.1172 57.0225 15.9464 56.2527 16.506C55.4829 17.0675 54.3842 17.3483 52.9548 17.3483C51.9983 17.3483 51.2285 17.264 50.6472 17.0974C50.064 16.929 49.6551 16.7942 49.4205 16.6913L49.8578 14.479C50.2329 14.6399 50.6792 14.7934 51.2001 14.9394C51.7174 15.091 52.3095 15.164 52.9744 15.164Z" fill="white"/>
<path d="M61.5719 2.26834C61.5719 2.76434 61.419 3.15739 61.1132 3.45125C60.8092 3.74323 60.4483 3.88922 60.0323 3.88922C59.602 3.88922 59.2358 3.74323 58.93 3.45125C58.6242 3.15926 58.4713 2.76434 58.4713 2.26834C58.4713 1.75737 58.6242 1.35683 58.93 1.06297C59.234 0.770991 59.602 0.625 60.0323 0.625C60.4483 0.625 60.8092 0.770991 61.1132 1.06297C61.4207 1.35496 61.5719 1.7555 61.5719 2.26834ZM61.3016 17.0696H58.7842V5.61679H61.3016V17.0696Z" fill="white"/>
<path d="M62.523 11.3982C62.523 10.3912 62.6635 9.50776 62.9479 8.74786C63.2324 7.98795 63.611 7.35719 64.0822 6.85371C64.5533 6.35023 65.0938 5.97028 65.7053 5.71573C66.3151 5.46118 66.9392 5.33203 67.5774 5.33203C69.0743 5.33203 70.2424 5.82054 71.0815 6.79943C71.9207 7.77832 72.3402 9.23637 72.3402 11.1792C72.3402 11.3252 72.3367 11.4899 72.3296 11.6714C72.3224 11.8549 72.3118 12.0177 72.2976 12.1637H65.1222C65.1915 13.0827 65.4991 13.7958 66.0467 14.2993C66.5943 14.8028 67.389 15.0554 68.4272 15.0554C69.037 15.0554 69.5952 14.9974 70.1019 14.8795C70.6068 14.7635 71.0069 14.6381 71.2984 14.507L71.6309 16.6744C71.4922 16.7474 71.302 16.8242 71.0584 16.9047C70.8148 16.9851 70.5393 17.0581 70.2264 17.1236C69.9135 17.1892 69.5775 17.2453 69.2183 17.2884C68.8574 17.3314 68.4912 17.3539 68.1161 17.3539C67.1596 17.3539 66.3276 17.2041 65.62 16.9065C64.9124 16.6071 64.3311 16.1916 63.8724 15.6581C63.4137 15.1247 63.0759 14.4977 62.8537 13.7752C62.6332 13.0509 62.523 12.2591 62.523 11.3982ZM69.8228 10.2153C69.8228 9.85028 69.773 9.50402 69.677 9.1746C69.5792 8.84706 69.437 8.56069 69.2503 8.32111C69.0637 8.07967 68.8343 7.89062 68.5641 7.75212C68.2939 7.61362 67.9721 7.54436 67.597 7.54436C67.2094 7.54436 66.8698 7.6211 66.5783 7.77458C66.2867 7.92806 66.0413 8.1302 65.8405 8.37726C65.6396 8.6262 65.4831 8.91069 65.3729 9.23075C65.2609 9.55081 65.1844 9.88023 65.1435 10.2153H69.8228Z" fill="white"/>
<path d="M79.9423 8.0048C79.7343 7.93181 79.4463 7.85507 79.0783 7.77458C78.7103 7.69597 78.2854 7.6548 77.8 7.6548C77.5227 7.6548 77.2276 7.68474 76.9164 7.74276C76.6053 7.80079 76.3866 7.85319 76.2622 7.89624V17.0694H73.7448V6.16493C74.2301 5.97589 74.8364 5.79621 75.5653 5.62963C76.2924 5.46118 77.1013 5.37695 77.9885 5.37695C78.1538 5.37695 78.3494 5.38818 78.5698 5.41064C78.7921 5.4331 79.0125 5.46305 79.2347 5.49861C79.457 5.53605 79.6721 5.5791 79.8801 5.62963C80.0881 5.68204 80.2552 5.72883 80.3797 5.77188L79.9423 8.0048Z" fill="white"/>
<path d="M99.0186 2.26834C99.0186 2.76434 98.8657 3.15739 98.5599 3.45125C98.2559 3.74323 97.895 3.88922 97.4789 3.88922C97.0487 3.88922 96.6825 3.74323 96.3767 3.45125C96.0709 3.15926 95.918 2.76434 95.918 2.26834C95.918 1.75737 96.0709 1.35683 96.3767 1.06297C96.6807 0.770991 97.0487 0.625 97.4789 0.625C97.895 0.625 98.2559 0.770991 98.5599 1.06297C98.8657 1.35496 99.0186 1.7555 99.0186 2.26834ZM98.7483 17.0696H96.2309V5.61679H98.7483V17.0696Z" fill="white"/>
<path d="M106.679 8.0048C106.471 7.93181 106.183 7.85507 105.815 7.77458C105.447 7.69597 105.022 7.6548 104.537 7.6548C104.26 7.6548 103.965 7.68474 103.653 7.74276C103.342 7.80079 103.124 7.85319 102.999 7.89624V17.0694H100.482V6.16493C100.967 5.97589 101.575 5.79621 102.302 5.62963C103.029 5.46118 103.838 5.37695 104.725 5.37695C104.891 5.37695 105.086 5.38818 105.307 5.41064C105.529 5.4331 105.75 5.46305 105.972 5.49861C106.194 5.53605 106.409 5.5791 106.617 5.62963C106.825 5.68204 106.992 5.72883 107.117 5.77188L106.679 8.0048Z" fill="white"/>
<path d="M107.117 11.3982C107.117 10.3912 107.257 9.50776 107.541 8.74786C107.826 7.98795 108.205 7.35719 108.676 6.85371C109.147 6.35023 109.687 5.97028 110.299 5.71573C110.909 5.46118 111.533 5.33203 112.171 5.33203C113.668 5.33203 114.836 5.82054 115.675 6.79943C116.514 7.77832 116.934 9.23637 116.934 11.1792C116.934 11.3252 116.93 11.4899 116.923 11.6714C116.916 11.8549 116.905 12.0177 116.891 12.1637H109.716C109.785 13.0827 110.093 13.7958 110.64 14.2993C111.188 14.8028 111.981 15.0554 113.021 15.0554C113.631 15.0554 114.189 14.9974 114.695 14.8795C115.2 14.7635 115.6 14.6381 115.892 14.507L116.224 16.6744C116.086 16.7474 115.896 16.8242 115.652 16.9047C115.408 16.9851 115.133 17.0581 114.82 17.1236C114.507 17.1892 114.171 17.2453 113.812 17.2884C113.451 17.3314 113.085 17.3539 112.71 17.3539C111.753 17.3539 110.921 17.2041 110.214 16.9065C109.508 16.6071 108.925 16.1916 108.466 15.6581C108.007 15.1247 107.669 14.4977 107.447 13.7752C107.227 13.0509 107.117 12.2591 107.117 11.3982ZM114.416 10.2153C114.416 9.85028 114.367 9.50402 114.271 9.1746C114.173 8.84706 114.031 8.56069 113.844 8.32111C113.657 8.07967 113.428 7.89062 113.158 7.75212C112.887 7.61362 112.566 7.54436 112.191 7.54436C111.803 7.54436 111.463 7.6211 111.172 7.77458C110.88 7.92806 110.635 8.1302 110.434 8.37726C110.233 8.6262 110.077 8.91069 109.966 9.23075C109.854 9.55081 109.778 9.88023 109.737 10.2153H114.416Z" fill="white"/>
<path d="M117.72 11.3532C117.72 10.5072 117.844 9.71544 118.093 8.97799C118.342 8.24055 118.699 7.6023 119.165 7.06139C119.629 6.52234 120.194 6.09747 120.861 5.79051C121.526 5.48356 122.275 5.33008 123.107 5.33008C124.132 5.33008 125.103 5.52661 126.019 5.92153L125.478 8.08894C125.187 7.95793 124.858 7.84937 124.49 7.75953C124.122 7.67156 123.731 7.62851 123.315 7.62851C122.33 7.62851 121.581 7.95418 121.067 8.60179C120.554 9.25126 120.298 10.1684 120.298 11.3494C120.298 12.4874 120.541 13.3896 121.025 14.054C121.51 14.7185 122.328 15.0497 123.478 15.0497C123.908 15.0497 124.332 15.0067 124.748 14.9187C125.164 14.8308 125.524 14.7203 125.828 14.5893L126.182 16.7792C125.905 16.9252 125.485 17.0562 124.924 17.1722C124.362 17.2883 123.782 17.3463 123.187 17.3463C122.257 17.3463 121.45 17.1966 120.763 16.899C120.077 16.5995 119.508 16.184 119.058 15.6506C118.607 15.1171 118.271 14.4826 118.05 13.7452C117.83 13.0152 117.72 12.216 117.72 11.3532Z" fill="white"/>
<path d="M127.409 2.59618L129.926 2.1582V5.61708H133.795V7.82754H129.926V12.4918C129.926 13.4108 130.065 14.0677 130.342 14.4608C130.62 14.8557 131.091 15.0522 131.756 15.0522C132.212 15.0522 132.62 15.0017 132.972 14.8988C133.325 14.7977 133.606 14.7022 133.814 14.6143L134.23 16.7162C133.939 16.8472 133.558 16.982 133.085 17.1205C132.614 17.259 132.06 17.3282 131.421 17.3282C130.644 17.3282 129.997 17.2178 129.476 16.9988C128.957 16.7798 128.543 16.4616 128.239 16.0461C127.933 15.6306 127.72 15.1271 127.594 14.5357C127.469 13.9442 127.407 13.2704 127.407 12.5105V2.59618H127.409Z" fill="white"/>
<path d="M28.1094 6.06757C27.7129 5.07558 27.1351 4.23706 26.3938 3.57823C25.6702 2.93437 24.7991 2.45896 23.807 2.15949C22.8754 1.88061 21.8461 1.74023 20.7438 1.74023C20.6834 1.74023 14.5107 1.75521 13.8085 1.79638L13.9525 4.52905L20.2905 11.2016L25.1297 6.105C25.3644 6.39886 25.5564 6.73763 25.7129 7.12882C25.96 7.75022 26.0862 8.52697 26.0862 9.44035C26.0862 10.3294 25.96 11.093 25.7129 11.7163C25.4693 12.3227 25.1404 12.8075 24.7066 13.2024C24.2604 13.6086 23.727 13.9062 23.0728 14.1102C22.3759 14.3292 21.5812 14.4396 20.71 14.4396C19.9758 14.4396 15.0725 14.4153 14.5534 14.3797L13.7782 17.1105C14.468 17.1592 20.6496 17.176 20.71 17.176C21.8318 17.176 22.8772 17.0263 23.8124 16.7324C24.8115 16.4217 25.6844 15.9314 26.4044 15.2744C27.1387 14.6081 27.7111 13.7677 28.1076 12.7776C28.4916 11.8193 28.6872 10.6962 28.6872 9.44035C28.6872 8.16012 28.4934 7.02587 28.1094 6.06757ZM17.5899 4.48974C19.014 4.48225 20.3882 4.47851 20.7438 4.47851C21.4798 4.47851 22.159 4.55899 22.7776 4.71247L20.2905 7.33283L17.5899 4.48974Z" fill="white"/>
<path d="M10.6903 13.1331H0.76997L1.46688 10.6719H10.6903V13.1331Z" fill="white"/>
<path d="M10.6903 8.20923H3.98434L4.68126 5.74609H10.6903V8.20923Z" fill="white"/>
</svg>
