<svg width="46" height="28" viewBox="0 0 46 28" fill="none" xmlns="http://www.w3.org/2000/svg">
<path d="M16.7646 2.9729H29.19V24.8261H16.7646V2.9729Z" fill="#FF5F00"/>
<path d="M17.5535 13.8996C17.5535 9.4595 19.6835 5.52121 22.9574 2.97289C20.5514 1.11965 17.5141 0 14.2007 0C6.3507 0 0 6.2161 0 13.8996C0 21.5829 6.3507 27.7991 14.2005 27.7991C17.514 27.7991 20.5512 26.6795 22.9574 24.8261C19.6835 22.3165 17.5535 18.3396 17.5535 13.8996Z" fill="#EB001B"/>
<path d="M45.9545 13.8996C45.9545 21.5829 39.6038 27.7991 31.754 27.7991C28.4405 27.7991 25.4033 26.6795 22.9971 24.8261C26.3105 22.2779 28.4012 18.3396 28.4012 13.8996C28.4012 9.4595 26.271 5.52121 22.9971 2.97289C25.4031 1.11965 28.4405 0 31.754 0C39.6038 0 45.9547 6.2548 45.9547 13.8996H45.9545Z" fill="#F79E1B"/>
</svg>
