<svg width="17" height="17" viewBox="0 0 17 17" fill="none" xmlns="http://www.w3.org/2000/svg">
<path d="M3 13L2 13C1.44772 13 1 13.4477 1 14L1 15C1 15.5523 1.44772 16 2 16L3 16C3.55228 16 4 15.5523 4 15L4 14C4 13.4477 3.55228 13 3 13Z" stroke="#92A6FF" stroke-width="1.5" stroke-linecap="round"/>
<path d="M9 13L8 13C7.44772 13 7 13.4477 7 14L7 15C7 15.5523 7.44772 16 8 16L9 16C9.55228 16 10 15.5523 10 15L10 14C10 13.4477 9.55228 13 9 13Z" stroke="#92A6FF" stroke-width="1.5" stroke-linecap="round"/>
<path d="M3 7L2 7C1.44772 7 1 7.44772 1 8L1 9C1 9.55228 1.44772 10 2 10L3 10C3.55228 10 4 9.55228 4 9L4 8C4 7.44772 3.55228 7 3 7Z" stroke="#92A6FF" stroke-width="1.5" stroke-linecap="round"/>
<path d="M9 7L8 7C7.44772 7 7 7.44772 7 8L7 9C7 9.55228 7.44772 10 8 10L9 10C9.55228 10 10 9.55228 10 9L10 8C10 7.44772 9.55228 7 9 7Z" stroke="#92A6FF" stroke-width="1.5" stroke-linecap="round"/>
<path d="M15 7L14 7C13.4477 7 13 7.44772 13 8L13 9C13 9.55228 13.4477 10 14 10L15 10C15.5523 10 16 9.55228 16 9L16 8C16 7.44772 15.5523 7 15 7Z" stroke="#92A6FF" stroke-width="1.5" stroke-linecap="round"/>
<path d="M2 4L15 4C15.5523 4 16 3.55228 16 3L16 2C16 1.44772 15.5523 1 15 1L2 1C1.44772 1 1 1.44771 1 2L1 3C1 3.55228 1.44771 4 2 4Z" stroke="#92A6FF" stroke-width="1.5" stroke-linecap="round"/>
</svg>
