<svg width="68" height="22" viewBox="0 0 68 22" fill="none" xmlns="http://www.w3.org/2000/svg">
<path d="M49.1302 1.62001C47.5806 1.05538 45.9427 0.772042 44.2935 0.783345C38.9602 0.783345 35.1935 3.47001 35.1668 7.32668C35.1335 10.16 37.8435 11.7567 39.8935 12.7033C41.9968 13.6767 42.7002 14.29 42.6935 15.16C42.6802 16.4833 41.0135 17.0833 39.4635 17.0833C37.3335 17.0833 36.1702 16.7867 34.3802 16.0433L33.7168 15.7333L32.9602 20.1733C34.2568 20.7133 36.5935 21.1767 39.0068 21.2167C44.6768 21.2167 48.3835 18.5467 48.4268 14.4433C48.4735 12.18 47.0068 10.47 43.9202 9.05668C42.0435 8.14001 40.8802 7.52668 40.8802 6.59668C40.8802 5.77334 41.8768 4.89334 43.9602 4.89334C45.3467 4.8598 46.7246 5.11994 48.0035 5.65668L48.5035 5.88001L49.2602 1.59001L49.1302 1.62001ZM62.9702 1.14334H58.8035C57.5068 1.14334 56.5302 1.50001 55.9635 2.78668L47.9502 20.94H53.6202L54.7535 17.9633L61.6735 17.97C61.8368 18.6667 62.3368 20.94 62.3368 20.94H67.3368L62.9702 1.14334ZM27.4968 0.976677H32.9002L29.5202 20.7833H24.1235L27.4968 0.970011V0.976677ZM13.7802 11.8933L14.3402 14.6433L19.6202 1.14334H25.3435L16.8402 20.9133H11.1302L6.46349 4.17334C6.38791 3.89732 6.2104 3.66025 5.96682 3.51001C4.28483 2.64114 2.50264 1.98177 0.660156 1.54668L0.733489 1.13001H9.43016C10.6102 1.17668 11.5602 1.54668 11.8768 2.80668L13.7768 11.9033V11.8933H13.7802ZM56.3035 13.9133L58.4568 8.37334C58.4302 8.43334 58.9002 7.23001 59.1735 6.48668L59.5435 8.19668L60.7935 13.91H56.3002V13.9133H56.3035Z" fill="#455ECE"/>
</svg>
